<svg width="1013" height="975" viewBox="0 0 1013 975" fill="none" xmlns="http://www.w3.org/2000/svg">
<rect width="1013" height="975" />
<g id="Desktop - 1" clip-path="url(#clip0_0_1)">
<g id="NotNull">
<path id="NN" d="M40.25 333.75C40.25 309.25 48.5 290 65 276C81.5 261.5 103.75 254.25 131.75 254.25L385.25 650.25L392.75 644.25L362 593.25V254.25C394.5 254.25 419 260.5 435.5 273C452.5 285.5 461 304 461 328.5V724.5C461 743 453 759 437 772.5C421.5 786 403.5 792.75 383 792.75L116 375L108.5 381.75L139.25 432.75V718.5C139.25 743 130.75 761.5 113.75 774C97.25 786.5 72.75 792.75 40.25 792.75V333.75ZM548.551 333.75C548.551 309.25 556.801 290 573.301 276C589.801 261.5 612.051 254.25 640.051 254.25L893.551 650.25L901.051 644.25L870.301 593.25V254.25C902.801 254.25 927.301 260.5 943.801 273C960.801 285.5 969.301 304 969.301 328.5V724.5C969.301 743 961.301 759 945.301 772.5C929.801 786 911.801 792.75 891.301 792.75L624.301 375L616.801 381.75L647.551 432.75V718.5C647.551 743 639.051 761.5 622.051 774C605.551 786.5 581.051 792.75 548.551 792.75V333.75Z" fill="black"/>
<rect id="crossLine" x="19.4451" y="745.897" width="1085.65" height="33.3111" rx="10" transform="rotate(-29.3364 19.4451 745.897)" fill="#FF0004"/>
</g>
</g>
<defs>
<clipPath id="clip0_0_1">
<rect width="1024" height="1024" fill="white" transform="translate(0 -24)"/>
</clipPath>
</defs>
</svg>
